<?xml version="1.0" encoding="utf-8"?>
<!-- Generator: Adobe Illustrator 18.0.0, SVG Export Plug-In . SVG Version: 6.00 Build 0)  -->
<!DOCTYPE svg PUBLIC "-//W3C//DTD SVG 1.1//EN" "http://www.w3.org/Graphics/SVG/1.1/DTD/svg11.dtd">
<svg version="1.1" id="Layer_1" xmlns="http://www.w3.org/2000/svg" xmlns:xlink="http://www.w3.org/1999/xlink" x="0px" y="0px"
	 viewBox="0 0 14.3 14.3" enable-background="new 0 0 14.3 14.3" xml:space="preserve">
<g>
	<g>
		<path fill="#FFFFFF" d="M-52.5,13.9c-0.9,0-1.9,0-2.8,0c0,0,0,0,0-0.1c0-1.4,0-2.9,0-4.3c0,0,0-0.1,0-0.1c0-0.1,0-0.2-0.1-0.4
			c-0.1-0.1-0.1-0.2-0.3-0.3c-0.1-0.1-0.3-0.2-0.5-0.2c-0.6,0-1.2,0-1.8,0c-0.1,0-0.1,0-0.2,0c-0.1,0-0.2,0.1-0.3,0.2
			c-0.1,0.1-0.2,0.2-0.2,0.3c0,0.1-0.1,0.2-0.1,0.3c0,1.4,0,2.9,0,4.3c0,0,0,0.1,0,0.1c-0.9,0-1.9,0-2.8,0c0,0,0,0,0,0c0,0,0,0,0,0
			c-0.1,0-0.2-0.1-0.3-0.2c-0.2-0.2-0.3-0.4-0.3-0.7c0-0.4,0-0.7,0-1.1c0-1.4,0-2.8,0-4.1c0,0,0-0.1,0-0.1c0,0-0.1,0-0.1,0
			c-0.3,0-0.5,0-0.8,0c-0.1,0-0.2,0-0.3,0c-0.1,0-0.2-0.1-0.3-0.2c-0.2-0.1-0.3-0.3-0.3-0.5c0,0,0,0,0,0c0-0.1,0-0.2,0-0.4
			c0,0,0,0,0,0c0-0.1,0.1-0.2,0.1-0.3c0.1-0.1,0.1-0.2,0.2-0.3c0.2-0.2,0.4-0.4,0.6-0.6c0.2-0.2,0.4-0.4,0.6-0.6
			c0.2-0.2,0.5-0.5,0.7-0.7c0.2-0.2,0.5-0.5,0.7-0.7c0.3-0.3,0.5-0.5,0.8-0.8c0.3-0.3,0.6-0.6,0.9-0.9c0.2-0.2,0.4-0.4,0.7-0.7
			c0.2-0.2,0.4-0.4,0.6-0.6c0.2-0.2,0.3-0.3,0.5-0.5c0.1-0.1,0.3-0.2,0.4-0.2c0,0,0,0,0,0c0.1,0,0.2,0,0.4,0c0,0,0,0,0,0
			c0,0,0.1,0,0.1,0c0.1,0.1,0.2,0.1,0.4,0.2c0.1,0.1,0.3,0.3,0.4,0.4c0.5,0.5,0.9,0.9,1.4,1.4c0,0,0.1,0.1,0.1,0.1c0,0,0-0.1,0-0.1
			c0-0.2,0-0.3,0-0.5c0-0.1,0-0.1,0-0.2c0-0.1,0.1-0.2,0.1-0.3c0.2-0.2,0.4-0.3,0.7-0.4c0.3,0,0.6,0,0.9,0c0.2,0,0.3,0,0.4,0.1
			c0.2,0.1,0.3,0.3,0.4,0.5c0,0.1,0,0.2,0,0.3c0,0.9,0,1.8,0,2.7c0,0.1,0,0.3,0,0.4c0,0,0,0.1,0,0.1c0.3,0.3,0.5,0.5,0.8,0.8
			c0.2,0.2,0.4,0.4,0.6,0.6c0.1,0.1,0.2,0.3,0.3,0.4c0,0,0,0.1,0,0.1c0,0.1,0,0.2,0,0.4c0,0,0,0,0,0c0,0.1,0,0.1-0.1,0.2
			c-0.2,0.3-0.4,0.5-0.8,0.5c-0.3,0-0.6,0-0.8,0c0,0-0.1,0-0.1,0c0,0,0,0.1,0,0.1c0,1.7,0,3.4,0,5.2c0,0.2,0,0.3-0.1,0.4
			C-52,13.6-52.2,13.8-52.5,13.9C-52.5,13.8-52.5,13.9-52.5,13.9z"/>
	</g>
</g>
<path fill="#F7F7F7" d="M7.2,0C3.2,0,0,3.2,0,7.2s3.2,7.2,7.2,7.2s7.2-3.2,7.2-7.2S11.1,0,7.2,0z M11.6,4.5L7.7,6.4V2.1
	C9.3,2.2,10.7,3.1,11.6,4.5z M7.2,12.3C4.3,12.3,2,10,2,7.2c0-2.7,2.1-4.9,4.7-5.1V8L12,5.4c0.2,0.6,0.3,1.2,0.3,1.8
	C12.3,10,10,12.3,7.2,12.3z"/>
<polygon fill="#F7F7F7" points="-62.8,40.7 -68.7,40.7 -68.7,34.9 -70.7,34.9 -70.7,40.7 -76.5,40.7 -76.5,42.7 -70.7,42.7 
	-70.7,48.5 -68.7,48.5 -68.7,42.7 -62.8,42.7 "/>
</svg>
