<?xml version="1.0" encoding="utf-8"?>
<!-- Generator: Adobe Illustrator 18.0.0, SVG Export Plug-In . SVG Version: 6.00 Build 0)  -->
<!DOCTYPE svg PUBLIC "-//W3C//DTD SVG 1.1//EN" "http://www.w3.org/Graphics/SVG/1.1/DTD/svg11.dtd">
<svg version="1.1" id="Layer_1" xmlns="http://www.w3.org/2000/svg" xmlns:xlink="http://www.w3.org/1999/xlink" x="0px" y="0px"
	 viewBox="0 0 14.1 14.1" enable-background="new 0 0 14.1 14.1" xml:space="preserve">
<g>
	<g>
		<path fill="#FFFFFF" d="M11.6,14.1c-0.9,0-1.9,0-2.8,0c0,0,0,0,0-0.1c0-1.4,0-2.9,0-4.3c0,0,0-0.1,0-0.1c0-0.1,0-0.2-0.1-0.4
			C8.6,9.2,8.6,9.1,8.5,9C8.3,8.9,8.1,8.8,8,8.8c-0.6,0-1.2,0-1.8,0c-0.1,0-0.1,0-0.2,0C5.8,8.9,5.7,8.9,5.6,9
			C5.5,9.1,5.4,9.2,5.3,9.4c0,0.1-0.1,0.2-0.1,0.3c0,1.4,0,2.9,0,4.3c0,0,0,0.1,0,0.1c-0.9,0-1.9,0-2.8,0c0,0,0,0,0,0c0,0,0,0,0,0
			c-0.1,0-0.2-0.1-0.3-0.2c-0.2-0.2-0.3-0.4-0.3-0.7c0-0.4,0-0.7,0-1.1c0-1.4,0-2.8,0-4.1c0,0,0-0.1,0-0.1c0,0-0.1,0-0.1,0
			c-0.3,0-0.5,0-0.8,0c-0.1,0-0.2,0-0.3,0c-0.1,0-0.2-0.1-0.3-0.2C0.2,7.6,0.1,7.5,0,7.3c0,0,0,0,0,0C0,7.1,0,7,0,6.9c0,0,0,0,0,0
			c0-0.1,0.1-0.2,0.1-0.3c0.1-0.1,0.1-0.2,0.2-0.3c0.2-0.2,0.4-0.4,0.6-0.6c0.2-0.2,0.4-0.4,0.6-0.6C1.8,4.8,2,4.6,2.3,4.4
			C2.5,4.1,2.7,3.9,3,3.7c0.3-0.3,0.5-0.5,0.8-0.8C4,2.6,4.3,2.3,4.6,2c0.2-0.2,0.4-0.4,0.7-0.7c0.2-0.2,0.4-0.4,0.6-0.6
			c0.2-0.2,0.3-0.3,0.5-0.5C6.5,0.1,6.7,0.1,6.8,0c0,0,0,0,0,0C7,0,7.1,0,7.2,0c0,0,0,0,0,0c0,0,0.1,0,0.1,0
			c0.1,0.1,0.2,0.1,0.4,0.2C7.9,0.5,8,0.6,8.2,0.7c0.5,0.5,0.9,0.9,1.4,1.4c0,0,0.1,0.1,0.1,0.1c0,0,0-0.1,0-0.1c0-0.2,0-0.3,0-0.5
			c0-0.1,0-0.1,0-0.2c0-0.1,0.1-0.2,0.1-0.3C10,1,10.2,0.9,10.5,0.9c0.3,0,0.6,0,0.9,0c0.2,0,0.3,0,0.4,0.1c0.2,0.1,0.3,0.3,0.4,0.5
			c0,0.1,0,0.2,0,0.3c0,0.9,0,1.8,0,2.7c0,0.1,0,0.3,0,0.4c0,0,0,0.1,0,0.1c0.3,0.3,0.5,0.5,0.8,0.8c0.2,0.2,0.4,0.4,0.6,0.6
			C13.9,6.4,14,6.6,14,6.8c0,0,0,0.1,0,0.1c0,0.1,0,0.2,0,0.4c0,0,0,0,0,0c0,0.1,0,0.1-0.1,0.2c-0.2,0.3-0.4,0.5-0.8,0.5
			c-0.3,0-0.6,0-0.8,0c0,0-0.1,0-0.1,0c0,0,0,0.1,0,0.1c0,1.7,0,3.4,0,5.2c0,0.2,0,0.3-0.1,0.4C12.1,13.8,11.9,14,11.6,14.1
			C11.6,14,11.6,14.1,11.6,14.1z"/>
	</g>
</g>
<g>
	<circle fill="none" stroke="#F7F7F7" stroke-width="2" stroke-miterlimit="10" cx="263.3" cy="9.1" r="6.2"/>
	<polyline fill="none" stroke="#F7F7F7" stroke-miterlimit="10" points="263.3,2.9 263.3,9.1 268.4,6.5 	"/>
</g>
<g>
	<line fill="none" stroke="#F7F7F7" stroke-width="2" stroke-miterlimit="10" x1="134.3" y1="3.2" x2="134.3" y2="13.8"/>
	<line fill="none" stroke="#F7F7F7" stroke-width="2" stroke-miterlimit="10" x1="128.9" y1="8.5" x2="139.6" y2="8.5"/>
</g>
</svg>
