<?xml version="1.0" encoding="utf-8"?>
<!-- Generator: Adobe Illustrator 18.0.0, SVG Export Plug-In . SVG Version: 6.00 Build 0)  -->
<!DOCTYPE svg PUBLIC "-//W3C//DTD SVG 1.1//EN" "http://www.w3.org/Graphics/SVG/1.1/DTD/svg11.dtd">
<svg version="1.1" id="Layer_1" xmlns="http://www.w3.org/2000/svg" xmlns:xlink="http://www.w3.org/1999/xlink" x="0px" y="0px"
	 viewBox="0 0 13.7 13.7" enable-background="new 0 0 13.7 13.7" xml:space="preserve">
<g>
	<g>
		<path fill="#FFFFFF" d="M-20,13.2c-0.9,0-1.9,0-2.8,0c0,0,0,0,0-0.1c0-1.4,0-2.9,0-4.3c0,0,0-0.1,0-0.1c0-0.1,0-0.2-0.1-0.4
			C-23,8.3-23,8.2-23.2,8.2C-23.3,8-23.5,8-23.7,8c-0.6,0-1.2,0-1.8,0c-0.1,0-0.1,0-0.2,0c-0.1,0-0.2,0.1-0.3,0.2
			c-0.1,0.1-0.2,0.2-0.2,0.3c0,0.1-0.1,0.2-0.1,0.3c0,1.4,0,2.9,0,4.3c0,0,0,0.1,0,0.1c-0.9,0-1.9,0-2.8,0c0,0,0,0,0,0c0,0,0,0,0,0
			c-0.1,0-0.2-0.1-0.3-0.2c-0.2-0.2-0.3-0.4-0.3-0.7c0-0.4,0-0.7,0-1.1c0-1.4,0-2.8,0-4.1c0,0,0-0.1,0-0.1c0,0-0.1,0-0.1,0
			c-0.3,0-0.5,0-0.8,0c-0.1,0-0.2,0-0.3,0c-0.1,0-0.2-0.1-0.3-0.2c-0.2-0.1-0.3-0.3-0.3-0.5c0,0,0,0,0,0c0-0.1,0-0.2,0-0.4
			c0,0,0,0,0,0c0-0.1,0.1-0.2,0.1-0.3c0.1-0.1,0.1-0.2,0.2-0.3c0.2-0.2,0.4-0.4,0.6-0.6c0.2-0.2,0.4-0.4,0.6-0.6
			c0.2-0.2,0.5-0.5,0.7-0.7c0.2-0.2,0.5-0.5,0.7-0.7c0.3-0.3,0.5-0.5,0.8-0.8c0.3-0.3,0.6-0.6,0.9-0.9c0.2-0.2,0.4-0.4,0.7-0.7
			c0.2-0.2,0.4-0.4,0.6-0.6c0.2-0.2,0.3-0.3,0.5-0.5c0.1-0.1,0.3-0.2,0.4-0.2c0,0,0,0,0,0c0.1,0,0.2,0,0.4,0c0,0,0,0,0,0
			c0,0,0.1,0,0.1,0c0.1,0.1,0.2,0.1,0.4,0.2c0.1,0.1,0.3,0.3,0.4,0.4c0.5,0.5,0.9,0.9,1.4,1.4c0,0,0.1,0.1,0.1,0.1c0,0,0-0.1,0-0.1
			c0-0.2,0-0.3,0-0.5c0-0.1,0-0.1,0-0.2c0-0.1,0.1-0.2,0.1-0.3c0.2-0.2,0.4-0.3,0.7-0.4c0.3,0,0.6,0,0.9,0c0.2,0,0.3,0,0.4,0.1
			c0.2,0.1,0.3,0.3,0.4,0.5c0,0.1,0,0.2,0,0.3c0,0.9,0,1.8,0,2.7c0,0.1,0,0.3,0,0.4c0,0,0,0.1,0,0.1c0.3,0.3,0.5,0.5,0.8,0.8
			c0.2,0.2,0.4,0.4,0.6,0.6c0.1,0.1,0.2,0.3,0.3,0.4c0,0,0,0.1,0,0.1c0,0.1,0,0.2,0,0.4c0,0,0,0,0,0c0,0.1,0,0.1-0.1,0.2
			c-0.2,0.3-0.4,0.5-0.8,0.5c-0.3,0-0.6,0-0.8,0c0,0-0.1,0-0.1,0c0,0,0,0.1,0,0.1c0,1.7,0,3.4,0,5.2c0,0.2,0,0.3-0.1,0.4
			C-19.5,13-19.7,13.2-20,13.2C-20,13.2-20,13.2-20,13.2z"/>
	</g>
</g>
<path fill="#F7F7F7" d="M39.7-0.6c-4,0-7.2,3.2-7.2,7.2s3.2,7.2,7.2,7.2s7.2-3.2,7.2-7.2S43.7-0.6,39.7-0.6z M44.1,3.8l-3.9,1.9V1.4
	C41.8,1.6,43.2,2.5,44.1,3.8z M39.7,11.7c-2.9,0-5.2-2.3-5.2-5.2c0-2.7,2.1-4.9,4.7-5.1v5.9l5.3-2.6c0.2,0.6,0.3,1.2,0.3,1.8
	C44.9,9.4,42.5,11.7,39.7,11.7z"/>
<polygon fill="#F7F7F7" points="13.7,5.8 7.8,5.8 7.8,0 5.8,0 5.8,5.8 0,5.8 0,7.8 5.8,7.8 5.8,13.7 7.8,13.7 7.8,7.8 13.7,7.8 "/>
</svg>
